<?xml version="1.0" standalone="no"?><!DOCTYPE svg PUBLIC "-//W3C//DTD SVG 1.1//EN" "http://www.w3.org/Graphics/SVG/1.1/DTD/svg11.dtd"><svg t="1713953036674" class="icon" viewBox="0 0 1024 1024" version="1.1" xmlns="http://www.w3.org/2000/svg" p-id="16884" xmlns:xlink="http://www.w3.org/1999/xlink" width="128" height="128"><path d="M933.546667 198.826667c-9.045333-13.653333-21.504-9.045333-22.528-8.874667L102.912 390.997333c-7.509333 1.877333-13.312 7.68-15.36 15.018667-2.048 7.509333 0 15.36 5.461333 20.821333l152.405333 151.552 43.690667 238.933333c0 0.512 1.706667 14.165333 16.042667 16.896 11.946667 2.218667 17.92-3.754667 18.261333-3.925333l97.450667-77.482667 76.288 75.946667c4.608 4.437333 10.752 6.826667 17.066667 6.144 6.314667-0.682667 11.946667-3.925333 15.701333-9.386667l403.968-602.794667C934.4 221.866667 941.226667 210.602667 933.546667 198.826667zM150.016 423.253333l611.84-152.064L268.970667 541.525333 150.016 423.253333zM314.538667 718.677333l-25.429333-139.434667 348.16-190.976L353.621333 595.456c0 0-3.754667 3.072-5.290667 5.12-1.365333 1.877333-2.730667 6.314667-2.730667 6.314667L314.538667 718.677333zM370.858667 675.84l30.890667 37.717333-53.248 42.325333L370.858667 675.84zM509.952 778.581333l-125.098667-153.088 0 0L831.146667 299.349333 509.952 778.581333z" p-id="16885" fill="#1ea59a"></path></svg>